<?xml version="1.0" standalone="no"?>
<!DOCTYPE svg PUBLIC "-//W3C//DTD SVG 20010904//EN"
 "http://www.w3.org/TR/2001/REC-SVG-20010904/DTD/svg10.dtd">
<svg version="1.0" xmlns="http://www.w3.org/2000/svg"
 width="512.000000pt" height="512.000000pt" viewBox="0 0 512.000000 512.000000"
 preserveAspectRatio="xMidYMid meet">

<g transform="translate(0.000000,512.000000) scale(0.100000,-0.100000)"
fill="#000000" stroke="none">
<path d="M2330 5105 c-880 -108 -1569 -811 -1659 -1695 -39 -379 49 -725 321
-1262 254 -502 730 -1199 1246 -1823 l99 -120 -316 -5 c-174 -3 -324 -9 -334
-14 -21 -10 -47 -57 -47 -85 0 -34 23 -72 51 -87 42 -21 1696 -21 1738 0 46
24 62 80 39 131 -24 53 -41 55 -378 55 l-312 0 53 63 c98 117 328 406 432 544
408 543 676 961 893 1395 95 189 108 233 84 279 -26 48 -118 61 -152 21 -8 -9
-56 -100 -106 -202 -265 -538 -726 -1212 -1299 -1903 -63 -75 -118 -137 -123
-137 -19 0 -463 557 -670 840 -558 765 -894 1392 -1001 1869 -67 299 -8 694
151 1010 346 690 1109 1059 1870 905 174 -35 416 -134 568 -230 441 -281 734
-768 778 -1294 10 -126 33 -160 109 -160 41 0 80 32 91 74 9 39 -13 234 -42
365 -76 341 -243 646 -493 905 -414 426 -1001 633 -1591 561z"/>
<path d="M2382 4609 c-175 -24 -360 -86 -507 -170 -129 -74 -219 -145 -326
-257 -187 -195 -303 -414 -361 -685 -31 -146 -31 -408 0 -554 62 -287 178
-499 387 -708 209 -209 421 -325 708 -387 146 -31 408 -31 554 0 564 121 987
548 1100 1109 25 123 25 403 0 526 -87 434 -370 802 -762 992 -128 62 -172 78
-315 111 -121 28 -355 40 -478 23z m358 -203 c367 -56 695 -286 877 -616 42
-76 80 -176 111 -289 23 -87 25 -114 25 -281 0 -167 -2 -194 -25 -281 -66
-245 -168 -420 -340 -585 -324 -310 -786 -413 -1214 -269 -291 98 -546 322
-688 602 -87 175 -119 317 -119 533 0 176 10 242 59 388 134 403 510 725 924
792 41 6 82 13 90 15 44 8 217 3 300 -9z"/>
<path d="M3036 3738 c-19 -18 -148 -194 -286 -390 -139 -197 -256 -358 -260
-358 -5 0 -99 100 -210 223 -111 122 -214 230 -229 239 -47 32 -105 18 -134
-32 -23 -38 -21 -71 6 -109 40 -57 501 -558 529 -575 31 -19 58 -20 92 -5 15
7 140 175 329 443 167 237 309 441 316 453 33 65 -18 143 -94 143 -15 0 -39
-13 -59 -32z"/>
<path d="M4239 2921 c-49 -49 -35 -126 28 -156 85 -41 169 43 128 128 -30 63
-107 77 -156 28z"/>
</g>
</svg>
