<?xml version="1.0" standalone="no"?>
<!DOCTYPE svg PUBLIC "-//W3C//DTD SVG 20010904//EN"
 "http://www.w3.org/TR/2001/REC-SVG-20010904/DTD/svg10.dtd">
<svg version="1.0" xmlns="http://www.w3.org/2000/svg"
 width="512.000000pt" height="512.000000pt" viewBox="0 0 512.000000 512.000000"
 preserveAspectRatio="xMidYMid meet">

<g transform="translate(0.000000,512.000000) scale(0.100000,-0.100000)"
fill="#000000" stroke="none">
<path d="M467 4949 c-99 -23 -212 -111 -258 -200 -49 -98 -49 -83 -49 -1062
l0 -918 25 -24 c13 -14 36 -25 51 -25 16 0 141 64 311 160 l284 160 1887 0
c1542 0 1896 3 1937 14 147 39 252 144 291 291 20 73 20 1237 0 1310 -39 147
-144 252 -291 291 -40 11 -278 14 -1232 14 l-1182 0 -27 -23 c-37 -33 -37 -81
0 -114 l27 -23 1182 0 1182 0 50 -24 c60 -28 97 -66 124 -126 20 -44 21 -63
21 -650 0 -587 -1 -606 -21 -650 -27 -60 -64 -98 -124 -126 l-50 -24 -1908 0
-1909 0 -230 -130 c-127 -72 -232 -130 -234 -130 -2 0 -4 375 -4 833 0 815 1
833 21 877 27 60 64 98 124 126 l50 24 558 0 558 0 24 25 c33 32 33 78 0 110
l-24 25 -563 -1 c-310 -1 -580 -5 -601 -10z"/>
<path d="M1865 4935 c-16 -15 -25 -36 -25 -55 0 -19 9 -40 25 -55 21 -22 33
-25 95 -25 62 0 74 3 95 25 16 15 25 36 25 55 0 19 -9 40 -25 55 -21 22 -33
25 -95 25 -62 0 -74 -3 -95 -25z"/>
<path d="M1152 4543 c-11 -10 -49 -79 -83 -153 -34 -74 -67 -140 -73 -146 -6
-6 -76 -21 -155 -32 -152 -23 -187 -37 -197 -76 -10 -42 6 -68 119 -184 l111
-113 -23 -142 c-13 -78 -25 -154 -28 -169 -4 -21 2 -34 25 -58 17 -16 41 -30
53 -30 12 0 85 34 161 76 l138 76 138 -76 c76 -42 148 -76 160 -76 33 0 75 42
76 76 0 16 -10 95 -24 176 l-24 147 111 114 c113 115 129 141 119 183 -10 39
-46 53 -199 77 -81 12 -150 27 -155 32 -5 6 -37 71 -71 145 -66 143 -87 170
-131 170 -15 0 -37 -8 -48 -17z m90 -340 c20 -43 44 -86 56 -96 16 -15 157
-47 206 -47 5 0 -23 -33 -62 -73 -39 -41 -74 -85 -77 -98 -3 -14 1 -67 10
-118 9 -51 15 -95 13 -96 -2 -2 -37 17 -78 41 -43 25 -88 43 -107 43 -19 1
-61 -16 -109 -43 -44 -25 -80 -43 -82 -41 -2 1 4 45 13 96 9 51 13 104 10 118
-3 13 -38 57 -77 98 -39 40 -67 73 -62 73 49 0 190 32 206 47 12 10 36 53 56
96 19 42 38 77 42 77 4 0 23 -35 42 -77z"/>
<path d="M2512 4543 c-11 -10 -49 -79 -83 -153 -34 -74 -67 -140 -73 -146 -6
-6 -76 -21 -155 -32 -152 -23 -187 -37 -197 -76 -10 -42 6 -68 119 -184 l111
-113 -23 -142 c-13 -78 -25 -154 -28 -169 -4 -21 2 -34 25 -58 17 -16 41 -30
53 -30 12 0 85 34 161 76 l138 76 138 -76 c76 -42 148 -76 160 -76 33 0 75 42
76 76 0 16 -10 95 -24 176 l-24 147 111 114 c113 115 129 141 119 183 -10 39
-46 53 -199 77 -81 12 -150 27 -155 32 -5 6 -37 71 -71 145 -66 143 -87 170
-131 170 -15 0 -37 -8 -48 -17z m90 -340 c20 -43 44 -86 56 -96 16 -15 157
-47 206 -47 5 0 -23 -33 -62 -73 -39 -41 -74 -85 -77 -98 -3 -14 1 -67 10
-118 9 -51 15 -95 13 -96 -2 -2 -37 17 -78 41 -43 25 -88 43 -107 43 -19 1
-61 -16 -109 -43 -44 -25 -80 -43 -82 -41 -2 1 4 45 13 96 9 51 13 104 10 118
-3 13 -38 57 -77 98 -39 40 -67 73 -62 73 49 0 190 32 206 47 12 10 36 53 56
96 19 42 38 77 42 77 4 0 23 -35 42 -77z"/>
<path d="M3872 4543 c-11 -10 -49 -79 -83 -153 -34 -74 -67 -140 -73 -146 -6
-6 -76 -21 -155 -32 -152 -23 -187 -37 -197 -76 -10 -42 6 -68 119 -184 l111
-113 -23 -142 c-13 -78 -25 -154 -28 -169 -4 -21 2 -34 25 -58 17 -16 41 -30
53 -30 12 0 85 34 161 76 l138 76 138 -76 c76 -42 148 -76 160 -76 33 0 75 42
76 76 0 16 -10 95 -24 176 l-24 147 111 114 c113 115 129 141 119 183 -10 39
-46 53 -199 77 -81 12 -150 27 -155 32 -5 6 -37 71 -71 145 -66 143 -87 170
-131 170 -15 0 -37 -8 -48 -17z m90 -340 c20 -43 44 -86 56 -96 16 -15 157
-47 206 -47 5 0 -23 -33 -62 -73 -39 -41 -74 -85 -77 -98 -3 -14 1 -67 10
-118 9 -51 15 -95 13 -96 -2 -2 -37 17 -78 41 -43 25 -88 43 -107 43 -19 1
-61 -16 -109 -43 -44 -25 -80 -43 -82 -41 -2 1 4 45 13 96 9 51 13 104 10 118
-3 13 -38 57 -77 98 -39 40 -67 73 -62 73 49 0 190 32 206 47 12 10 36 53 56
96 19 42 38 77 42 77 4 0 23 -35 42 -77z"/>
<path d="M4620 2849 c-34 -15 -183 -157 -624 -597 -318 -317 -584 -590 -591
-607 -7 -16 -25 -96 -41 -177 -24 -126 -26 -150 -15 -171 26 -49 49 -50 225
-16 l161 32 588 586 c338 336 597 602 608 624 62 119 14 268 -104 323 -66 30
-144 32 -207 3z m159 -165 c31 -39 26 -69 -18 -117 l-40 -42 -55 55 -56 54 37
38 c47 49 100 53 132 12z m-648 -748 l-474 -474 -64 -12 c-35 -7 -66 -11 -68
-9 -2 2 2 33 10 68 l13 64 474 474 473 473 55 -55 55 -55 -474 -474z"/>
<path d="M467 2389 c-99 -23 -212 -111 -258 -200 -48 -95 -49 -106 -49 -749 0
-643 1 -654 49 -749 29 -56 106 -133 162 -162 92 -47 118 -49 582 -49 l438 0
24 25 c16 15 25 36 25 55 0 19 -9 40 -25 55 l-24 25 -438 0 -438 0 -50 24
c-60 28 -97 66 -124 126 -20 44 -21 63 -21 650 0 587 1 606 21 650 27 60 64
98 124 126 l50 24 1678 0 1678 0 24 25 c33 32 33 78 0 110 l-24 25 -1683 -1
c-937 -1 -1700 -5 -1721 -10z"/>
<path d="M4759 2251 c-30 -24 -31 -77 -2 -117 44 -61 44 -69 41 -932 l-3 -822
-232 130 -231 130 -1181 0 -1182 0 -24 -25 c-33 -32 -33 -78 0 -110 l24 -25
1161 0 1160 0 284 -160 c167 -94 295 -160 311 -160 14 0 37 11 51 25 l24 25
-2 942 -3 943 -28 60 c-51 109 -110 143 -168 96z"/>
<path d="M665 1975 c-16 -15 -25 -36 -25 -55 0 -19 9 -40 25 -55 23 -24 28
-25 173 -25 136 0 152 2 176 21 37 29 37 89 0 118 -24 19 -40 21 -176 21 -145
0 -150 -1 -173 -25z"/>
<path d="M1324 1977 c-20 -17 -27 -33 -27 -57 0 -24 7 -40 27 -57 l27 -23
1020 0 1020 0 24 25 c16 15 25 36 25 55 0 19 -9 40 -25 55 l-24 25 -1020 0
-1020 0 -27 -23z"/>
<path d="M665 1655 c-16 -15 -25 -36 -25 -55 0 -19 9 -40 25 -55 l24 -25 759
0 c753 0 760 0 786 21 37 29 37 89 0 118 -26 21 -33 21 -786 21 l-759 0 -24
-25z"/>
<path d="M2373 1660 c-12 -10 -24 -29 -28 -40 -10 -30 12 -75 41 -89 17 -7
141 -11 395 -11 l370 0 24 25 c16 15 25 36 25 55 0 19 -9 40 -25 55 l-24 25
-379 0 c-362 0 -379 -1 -399 -20z"/>
<path d="M665 1335 c-16 -15 -25 -36 -25 -55 0 -19 9 -40 25 -55 l24 -25 1231
0 1231 0 24 25 c33 32 33 78 0 110 l-24 25 -1231 0 -1231 0 -24 -25z"/>
<path d="M665 1015 c-16 -15 -25 -36 -25 -55 0 -19 9 -40 25 -55 l24 -25 471
0 471 0 24 25 c33 32 33 78 0 110 l-24 25 -471 0 -471 0 -24 -25z"/>
<path d="M1844 1017 c-36 -32 -36 -83 1 -114 l26 -23 1288 0 c1288 0 1288 0
1315 21 20 16 26 29 26 59 0 30 -6 43 -26 59 -27 21 -27 21 -1315 21 l-1288 0
-27 -23z"/>
<path d="M1563 620 c-29 -27 -37 -56 -23 -89 16 -39 48 -51 140 -51 92 0 124
12 140 51 14 33 6 62 -23 89 -18 17 -35 20 -117 20 -82 0 -99 -3 -117 -20z"/>
</g>
</svg>
