<?xml version="1.0" standalone="no"?>
<!DOCTYPE svg PUBLIC "-//W3C//DTD SVG 20010904//EN"
 "http://www.w3.org/TR/2001/REC-SVG-20010904/DTD/svg10.dtd">
<svg version="1.0" xmlns="http://www.w3.org/2000/svg"
 width="512.000000pt" height="512.000000pt" viewBox="0 0 512.000000 512.000000"
 preserveAspectRatio="xMidYMid meet">

<g transform="translate(0.000000,512.000000) scale(0.100000,-0.100000)"
fill="#000000" stroke="none">
<path d="M1770 4953 c-600 -64 -1109 -474 -1293 -1043 -69 -212 -72 -243 -72
-840 0 -533 0 -535 23 -610 95 -302 348 -511 651 -536 l78 -7 -13 -38 c-8 -21
-16 -56 -20 -77 l-6 -40 -112 -4 c-94 -4 -119 -9 -167 -31 -105 -50 -182 -158
-195 -270 -6 -55 99 -1038 116 -1091 13 -39 13 -46 -5 -46 -9 0 -27 -11 -40
-25 -33 -32 -33 -78 0 -110 l24 -25 1189 0 c1180 0 1188 0 1210 20 12 11 24
31 28 44 8 35 -21 86 -55 92 -28 6 -28 6 -15 47 7 23 38 273 69 554 62 564 62
565 8 665 -34 62 -90 113 -162 146 -48 23 -73 27 -172 30 l-117 4 -6 39 c-4
22 -12 57 -20 78 l-13 38 78 7 c303 25 556 234 651 536 23 75 23 77 23 610 0
597 -3 628 -72 840 -77 238 -187 415 -372 601 -258 257 -541 395 -901 439 -80
9 -244 11 -320 3z m-129 -1426 c93 -80 228 -118 345 -98 75 14 166 56 218 102
l36 31 29 -21 c17 -12 56 -34 88 -49 51 -24 70 -27 158 -26 78 0 112 5 153 21
l54 22 -4 -257 c-6 -298 -15 -350 -95 -505 -38 -75 -64 -109 -143 -187 -78
-79 -112 -105 -187 -143 -311 -160 -667 -113 -914 120 -83 79 -125 134 -172
229 -71 139 -79 188 -84 481 l-5 262 53 -21 c40 -16 77 -22 144 -22 104 -1
149 10 225 58 30 19 57 34 58 35 2 1 21 -14 43 -32z m-681 -327 l0 -80 -45 0
c-58 0 -91 16 -106 51 -9 22 -9 36 0 58 15 36 43 49 104 50 l47 1 0 -80z
m2034 69 c35 -16 52 -61 37 -98 -15 -35 -48 -51 -106 -51 l-45 0 0 80 0 80 45
0 c24 0 55 -5 69 -11z m-914 -1159 c0 -79 -32 -138 -90 -167 -24 -13 -56 -23
-70 -23 -14 0 -46 10 -70 23 -58 29 -90 88 -90 167 l0 55 160 0 160 0 0 -55z
m-445 -172 c36 -74 102 -133 177 -159 l53 -18 -293 -1 -294 0 7 33 c20 91 93
170 185 198 14 4 50 8 80 8 l55 0 30 -61z m781 34 c68 -35 123 -106 139 -179
l7 -33 -294 0 -293 1 53 18 c76 26 141 85 177 160 l30 63 71 -5 c43 -3 87 -13
110 -25z m-402 -971 c26 -27 31 -39 31 -81 0 -42 -5 -54 -30 -80 -100 -99
-259 20 -188 141 39 66 131 75 187 20z"/>
<path d="M1435 3271 c-45 -20 -70 -60 -70 -112 0 -42 5 -53 33 -81 28 -28 39
-33 82 -33 43 0 54 5 82 33 28 28 33 39 33 82 0 42 -5 54 -31 81 -33 33 -92
46 -129 30z"/>
<path d="M2315 3271 c-45 -20 -70 -60 -70 -112 0 -42 5 -53 33 -81 28 -28 39
-33 82 -33 43 0 54 5 82 33 28 28 33 39 33 82 0 42 -5 54 -31 81 -33 33 -92
46 -129 30z"/>
<path d="M3945 4935 c-24 -23 -25 -28 -25 -175 0 -147 1 -152 25 -175 15 -16
36 -25 55 -25 19 0 40 9 55 25 24 23 25 28 25 175 0 147 -1 152 -25 175 -15
16 -36 25 -55 25 -19 0 -40 -9 -55 -25z"/>
<path d="M3305 4695 c-16 -16 -25 -35 -25 -57 0 -27 15 -47 103 -135 88 -88
108 -103 135 -103 44 0 82 38 82 82 0 27 -15 47 -103 135 -88 88 -108 103
-135 103 -22 0 -41 -9 -57 -25z"/>
<path d="M4503 4617 c-88 -88 -103 -108 -103 -135 0 -44 38 -82 82 -82 27 0
47 15 135 103 88 88 103 108 103 135 0 22 -9 41 -25 57 -16 16 -35 25 -57 25
-27 0 -47 -15 -135 -103z"/>
<path d="M3881 4384 c-215 -58 -361 -251 -361 -479 0 -148 46 -253 162 -366
l78 -76 0 -68 c0 -99 16 -142 77 -202 28 -29 59 -53 67 -53 10 0 16 -9 16 -25
0 -36 42 -75 80 -75 38 0 80 39 80 75 0 16 6 25 16 25 8 0 39 24 67 53 61 60
77 103 77 202 l0 68 78 76 c43 42 90 99 105 127 56 106 72 251 42 367 -67 259
-333 419 -584 351z m253 -178 c66 -30 122 -87 155 -156 22 -47 26 -69 26 -145
-1 -117 -23 -168 -107 -247 l-61 -58 -147 0 -147 0 -61 58 c-84 79 -106 130
-107 247 0 76 4 98 26 145 77 162 262 231 423 156z"/>
<path d="M3545 1015 l-25 -24 0 -288 c1 -225 4 -297 15 -328 20 -54 19 -55
-15 -55 -70 0 -105 -86 -55 -135 l24 -25 471 0 471 0 24 25 c50 49 15 135 -56
135 -24 0 -30 3 -25 16 3 9 9 27 12 40 6 22 11 24 66 24 91 0 136 17 193 75
98 97 101 222 8 325 -51 57 -108 80 -195 80 l-58 0 0 55 c0 46 -4 60 -25 80
l-24 25 -391 0 -391 0 -24 -25z m990 -320 c16 -15 25 -36 25 -55 0 -51 -38
-80 -105 -80 l-55 0 0 80 0 80 55 0 c46 0 60 -4 80 -25z"/>
</g>
</svg>
